<svg width="55" height="55" viewBox="0 0 55 55" fill="none" xmlns="http://www.w3.org/2000/svg">
<mask id="mask0_1_1105" style="mask-type:luminance" maskUnits="userSpaceOnUse" x="0" y="0" width="55" height="55">
<path d="M55 0H0V55H55V0Z" fill="white"/>
</mask>
<g mask="url(#mask0_1_1105)">
<path fill-rule="evenodd" clip-rule="evenodd" d="M21.3356 3.11239C18.0531 4.82048 15.3675 6.26586 15.3681 6.32464C15.3696 6.4764 23.2463 10.4612 23.5259 10.4514C23.6531 10.4472 24.5756 10.023 25.5759 9.50885L27.3949 8.57426L29.3815 9.59429L31.368 10.6145L34.6212 9.15429C39.5232 6.95393 40.0324 6.71279 39.9526 6.63179C39.8467 6.52432 38.0884 5.58079 33.3182 3.07214C31.0128 1.85969 28.7752 0.670912 28.3457 0.430362C27.9162 0.189813 27.5061 -0.0036922 27.4344 5.34754e-05C27.3628 0.00379915 24.6183 1.40437 21.3356 3.11239ZM6.93846 10.5597L3.52134 12.3228V20.0609C3.52134 24.3168 3.56621 27.7989 3.62125 27.7989C3.6761 27.7989 5.35731 27.0709 7.35721 26.1811L10.9934 24.5633V16.407L12.7702 17.374C14.1395 18.1185 15.5095 18.8614 16.8804 19.6029L19.2136 20.8648L20.2519 20.3958C20.903 20.1013 21.5528 19.8038 22.2013 19.5034C22.7025 19.2704 23.9326 18.7169 24.935 18.2733C25.9373 17.8295 26.8651 17.3833 26.9967 17.2816C27.1715 17.1465 25.0403 15.9701 19.1143 12.9303C14.6474 10.6388 10.8492 8.77136 10.6741 8.7803C10.4989 8.78925 8.81787 9.58985 6.93846 10.5597ZM40.5684 11.0548C38.2412 12.1043 36.3354 13.0049 36.3332 13.0562C36.3312 13.1076 37.5996 13.8609 39.1521 14.7302C40.7045 15.5996 41.9748 16.3575 41.9748 16.4146C41.9748 16.4715 40.601 17.1364 38.9222 17.8924C37.2431 18.6482 32.9993 20.5627 29.4911 22.1468L17.7363 27.4544C14.7795 28.7896 12.1141 29.9931 11.8135 30.1292C5.77384 32.8603 4.1138 33.6181 3.88583 33.7482C3.65658 33.8792 3.60466 34.64 3.56386 38.4589L3.51517 43.0137L6.57088 44.5689L9.62653 46.1242L13.8637 44.214C16.1942 43.1635 18.1008 42.2489 18.1008 42.1815C18.1008 42.1144 17.6702 41.8341 17.1441 41.5584C16.6177 41.2828 15.5312 40.6726 14.7293 40.2021C13.9275 39.7316 13.128 39.3 12.9524 39.2427C12.777 39.1856 12.6359 39.0858 12.6388 39.0206C12.6417 38.9557 14.5076 38.0704 16.7849 37.0531C21.2081 35.0776 24.5931 33.5551 31.8602 30.2723C35.1098 28.8046 38.3598 27.3379 41.6103 25.8721C44.4669 24.5841 47.7883 23.0797 48.9911 22.5292L51.178 21.5282L51.2267 16.9216L51.2755 12.3152L48.1763 10.7261C46.4716 9.85224 45.0146 9.13936 44.9382 9.14199C44.8618 9.14437 42.8955 10.0051 40.5684 11.0548ZM50.3477 27.6737C49.891 27.8965 48.9889 28.3137 48.3431 28.6008C47.6972 28.8878 46.4716 29.4401 45.6196 29.8285L44.0705 30.5343L44.0352 34.5785C44.0157 36.8027 43.9337 38.6127 43.853 38.601C43.6696 38.5737 40.7663 37.0863 37.8479 35.5242C35.7415 34.3969 35.6091 34.352 35.1142 34.597C34.8281 34.7386 33.1177 35.5048 31.3135 36.2999C29.5093 37.095 27.9743 37.7974 27.9021 37.861C27.8301 37.9245 31.4613 39.8905 35.9717 42.2301L44.1721 46.4838L47.6752 44.6736C49.6017 43.6782 51.2398 42.7701 51.3153 42.6559C51.4851 42.3991 51.4706 27.2333 51.3006 27.2538C51.2333 27.2619 50.8044 27.4508 50.3477 27.6737ZM30.9491 45.4746C30.3414 45.7355 29.7339 45.9968 29.1266 46.2586C27.2926 47.0511 27.6521 47.0774 25.4702 45.9924C24.017 45.2698 23.3906 45.0469 23.1187 45.1551C22.9148 45.2363 21.1596 46.0251 19.218 46.908C17.2765 47.7909 15.6207 48.5132 15.5383 48.5132C14.7237 48.5132 16.078 49.3215 21.3036 51.9548L27.4321 55.0424L30.0106 53.7708C31.4289 53.0714 34.2894 51.6707 36.3675 50.6584C38.4454 49.6458 40.1199 48.7911 40.0886 48.7588C40.057 48.7267 38.3158 47.8336 36.2191 46.7741L32.407 44.8481L30.9491 45.4746Z" fill="#000958"/>
</g>
</svg>
